<?xml version="1.0" standalone="no"?>
<!DOCTYPE svg PUBLIC "-//W3C//DTD SVG 20010904//EN"
 "http://www.w3.org/TR/2001/REC-SVG-20010904/DTD/svg10.dtd">
<svg version="1.0" xmlns="http://www.w3.org/2000/svg"
 width="640.000000pt" height="640.000000pt" viewBox="0 0 640.000000 640.000000"
 preserveAspectRatio="xMidYMid meet">
<metadata>
Created by potrace 1.14, written by Peter Selinger 2001-2017
</metadata>
<g transform="translate(0.000000,640.000000) scale(0.100000,-0.100000)"
fill="#000000" stroke="none">
<path d="M1597 5384 c-1 -1 -18 -4 -37 -7 -19 -3 -55 -8 -79 -13 -45 -7 -590
-271 -625 -302 -63 -57 -68 -171 -11 -225 36 -33 43 -38 140 -99 75 -47 181
-115 245 -158 173 -115 278 -182 293 -186 9 -4 17 -10 17 -15 0 -5 4 -9 9 -9
8 0 150 -89 241 -150 34 -23 488 -314 518 -333 18 -11 30 -23 25 -27 -4 -5
-132 -71 -283 -148 -151 -77 -368 -188 -482 -246 l-207 -106 -44 19 c-24 11
-71 31 -103 46 -32 15 -68 30 -79 35 -24 10 -115 51 -187 84 -300 137 -301
137 -594 -8 -181 -90 -214 -110 -232 -140 -26 -44 -33 -87 -21 -129 8 -29 85
-132 149 -198 14 -15 39 -44 55 -65 17 -21 39 -47 50 -58 11 -12 40 -46 65
-76 24 -30 51 -62 60 -70 8 -8 37 -42 65 -75 27 -33 55 -66 62 -73 7 -7 29
-34 50 -60 21 -25 47 -56 58 -67 11 -11 41 -45 65 -75 74 -91 146 -158 194
-180 43 -19 143 -35 191 -31 11 1 27 2 35 2 64 -2 123 0 129 3 4 3 13 1 19 -3
7 -4 33 -5 57 -1 25 4 45 4 45 1 0 -7 217 -4 236 3 7 3 15 2 18 -2 3 -4 32 -5
65 -2 34 3 61 3 61 0 0 -5 105 -4 268 3 34 1 62 0 62 -3 0 -3 26 -4 57 -2 32
1 74 2 93 2 19 -1 42 -1 50 -1 17 1 110 0 125 -1 53 -3 230 81 1475 703 1496
746 1527 762 1637 841 29 21 56 38 62 38 5 0 11 3 13 8 2 4 28 27 58 52 67 54
150 132 199 184 20 22 43 47 51 56 67 71 190 242 239 330 37 68 111 223 136
285 22 54 28 87 29 145 0 91 -7 127 -40 192 -24 48 -132 164 -142 153 -3 -3
-12 1 -21 9 -21 18 -81 37 -134 42 -39 4 -189 7 -212 4 -5 -1 -46 -1 -90 0
-118 1 -173 1 -182 -1 -4 -1 -12 -1 -18 1 -13 2 -136 -1 -207 -5 -64 -4 -120
-12 -204 -29 -39 -8 -149 -44 -199 -66 -57 -24 -297 -142 -305 -150 -3 -3
-120 -63 -260 -134 -140 -71 -324 -164 -408 -207 -136 -69 -157 -77 -180 -68
-15 6 -52 20 -82 31 -30 11 -64 23 -75 28 -11 4 -58 22 -105 40 -47 18 -94 36
-105 40 -11 4 -45 17 -75 28 -65 24 -216 80 -245 92 -44 18 -90 35 -95 35 -3
0 -39 13 -80 29 -41 16 -122 46 -180 68 -58 22 -141 53 -185 70 -44 16 -105
39 -135 50 -30 11 -64 24 -75 28 -11 4 -58 22 -105 40 -47 18 -94 36 -105 40
-11 4 -45 17 -75 28 -30 11 -93 35 -140 52 -47 18 -89 33 -95 34 -5 1 -20 5
-32 9 -20 7 -191 25 -196 21z"/>
<path d="M320 1278 c0 -3 -9 -4 -19 -1 -11 3 -48 -5 -83 -16 -77 -26 -144 -84
-184 -161 -26 -48 -29 -65 -28 -140 0 -68 5 -95 24 -134 30 -62 93 -125 155
-156 l50 -25 2945 -3 2944 -2 62 20 c74 25 147 90 184 165 21 42 25 64 24 135
0 100 -23 157 -88 224 -72 72 -143 95 -291 96 -27 0 -59 0 -70 0 -11 0 -36 0
-55 -1 -19 0 -42 0 -50 0 -63 2 -123 0 -131 -5 -5 -3 -9 -2 -9 3 0 7 -56 8
-220 3 -47 -1 -105 -1 -120 -1 -62 2 -102 1 -108 -3 -5 -3 -14 -1 -21 3 -7 5
-30 5 -52 1 -22 -4 -41 -4 -44 0 -2 4 -25 4 -50 0 -25 -4 -45 -4 -45 -1 0 3
-26 5 -57 3 -32 -1 -76 -2 -98 -1 -22 0 -46 0 -52 0 -25 -2 -44 -2 -98 -1 -30
1 -59 -1 -64 -4 -5 -4 -12 -2 -15 2 -3 5 -26 6 -51 2 -25 -4 -45 -4 -45 -1 0
3 -26 5 -57 3 -32 -1 -76 -2 -98 -1 -22 0 -46 0 -52 0 -25 -2 -44 -2 -98 -1
-30 1 -59 -1 -64 -4 -5 -4 -12 -2 -15 2 -3 5 -26 6 -51 2 -25 -4 -45 -4 -45
-1 0 3 -26 5 -57 3 -32 -1 -76 -2 -98 -1 -22 0 -46 0 -52 0 -25 -2 -44 -2 -98
-1 -30 1 -59 -1 -64 -4 -5 -4 -12 -2 -15 2 -3 5 -26 6 -51 2 -25 -4 -45 -4
-45 -1 0 3 -26 5 -57 3 -32 -1 -76 -2 -98 -1 -22 0 -46 0 -52 0 -25 -2 -44 -2
-98 -1 -30 1 -59 -1 -64 -4 -5 -4 -12 -2 -15 2 -3 5 -26 6 -51 2 -25 -4 -45
-4 -45 -1 0 3 -26 5 -57 3 -32 -1 -76 -2 -98 -1 -22 0 -46 0 -52 0 -25 -2 -44
-2 -98 -1 -30 1 -59 -1 -64 -4 -5 -4 -12 -2 -15 2 -3 5 -26 6 -51 2 -25 -4
-45 -4 -45 -1 0 3 -26 5 -57 3 -32 -1 -76 -2 -98 -1 -22 0 -46 0 -52 0 -25 -2
-44 -2 -98 -1 -30 1 -59 -1 -64 -4 -5 -4 -12 -2 -15 2 -3 5 -26 6 -51 2 -25
-4 -45 -4 -45 -1 0 3 -26 5 -57 3 -32 -1 -76 -2 -98 -1 -22 0 -46 0 -52 0 -25
-2 -44 -2 -98 -1 -30 1 -59 -1 -64 -4 -5 -4 -12 -2 -15 2 -3 5 -26 6 -51 2
-25 -4 -45 -4 -45 -1 0 3 -26 5 -57 3 -32 -1 -76 -2 -98 -1 -22 0 -46 0 -52 0
-25 -2 -44 -2 -98 -1 -30 1 -59 -1 -64 -4 -5 -4 -12 -2 -15 2 -3 5 -26 6 -51
2 -25 -4 -45 -4 -45 -1 0 3 -26 5 -57 3 -32 -1 -76 -2 -98 -1 -22 0 -46 0 -52
0 -25 -2 -44 -2 -98 -1 -30 1 -59 -1 -64 -4 -5 -4 -12 -2 -15 2 -3 5 -26 6
-51 2 -25 -4 -45 -4 -45 -1 0 3 -26 5 -57 3 -32 -1 -76 -2 -98 -2 -22 1 -46 1
-52 1 -59 -1 -86 -1 -136 1 -31 2 -57 0 -57 -4z"/>
</g>
</svg>
